<svg width="239" height="64" viewBox="0 0 239 64" fill="none" xmlns="http://www.w3.org/2000/svg">
<path fill-rule="evenodd" clip-rule="evenodd" d="M36.877 33.7526L46.6038 43.5005C47.2532 44.1513 48.3073 44.1524 48.9582 43.503C49.2712 43.1907 49.4471 42.7667 49.4471 42.3245V22.8289C49.4471 21.9094 48.7017 21.1641 47.7823 21.1641C47.3401 21.1641 46.9161 21.34 46.6038 21.6529L36.877 31.4008C36.2285 32.0506 36.2285 33.1028 36.877 33.7526Z" fill="url(#paint0_radial_2944_11401)"/>
<path fill-rule="evenodd" clip-rule="evenodd" d="M30.0639 15C34.4772 15 38.0549 18.5777 38.0549 22.9911L38.0549 23.657H28.9355C24.5663 23.657 21.016 27.1635 20.9455 31.5159L20.9444 31.648V33.3128C20.9444 37.7262 24.5221 41.3039 28.9355 41.3039H38.0549L38.0549 41.9698C38.0549 46.3831 34.4772 49.9609 30.0639 49.9609H11.9911C7.57772 49.9609 4 46.3831 4 41.9698V22.9911C4 18.5777 7.57772 15 11.9911 15H30.0639Z" fill="url(#paint1_radial_2944_11401)"/>
<path d="M162.157 19.1719H159.288C158.874 19.1719 158.539 19.5073 158.539 19.921V44.6073C158.539 45.021 158.874 45.3564 159.288 45.3564H162.425L162.46 45.3556C162.857 45.3372 163.174 45.0092 163.174 44.6073L163.174 26.821L170.66 35.5627C170.685 35.5918 170.712 35.619 170.741 35.6439L170.771 35.6683C171.085 35.9108 171.537 35.8675 171.798 35.5633L179.302 26.8185L179.302 44.6073C179.302 45.021 179.637 45.3564 180.051 45.3564H183.188C183.601 45.3564 183.937 45.021 183.937 44.6073V19.921C183.937 19.5073 183.601 19.1719 183.188 19.1719H180.319L180.278 19.173C180.074 19.1841 179.883 19.2778 179.75 19.4335L171.229 29.3741L162.726 19.434C162.584 19.2677 162.376 19.1719 162.157 19.1719Z" fill="#070707"/>
<path d="M195.161 27.3438C197.705 27.3438 199.754 28.1906 201.264 29.881C202.289 31.0279 202.961 32.4456 203.283 34.1225L203.297 34.1997C203.387 34.7202 203.453 35.6097 203.498 36.8879C203.514 37.3014 203.192 37.6492 202.778 37.665L202.756 37.6654L191.192 37.6654L191.195 37.6859C191.36 38.7675 191.773 39.6211 192.43 40.2643L192.484 40.316C193.299 41.0842 194.402 41.4718 195.822 41.4718C196.805 41.4718 197.836 41.2892 198.916 40.9217L199.009 40.8892C199.688 40.6443 200.723 40.1289 202.1 39.347C202.46 39.1423 202.918 39.2691 203.121 39.6295C203.185 39.7422 203.219 39.8695 203.219 39.9985V42.9245C203.218 43.1964 203.069 43.4463 202.831 43.5781L202.52 43.7477C201.196 44.4635 200.165 44.9338 199.416 45.1606C198.198 45.529 196.94 45.7132 195.643 45.7132C192.88 45.7132 190.644 44.8462 188.973 43.1114C187.307 41.3814 186.477 39.0806 186.477 36.2423C186.477 33.6281 187.279 31.4784 188.886 29.8271C190.496 28.1725 192.6 27.3438 195.161 27.3438ZM195.125 31.3347C193.994 31.3347 193.111 31.6265 192.449 32.2022C191.926 32.6567 191.539 33.2914 191.292 34.1171L191.28 34.1573H198.616L198.602 34.0959C198.436 33.3811 198.115 32.7925 197.64 32.3189L197.584 32.2647C196.932 31.6432 196.123 31.3347 195.125 31.3347Z" fill="#070707"/>
<path d="M213.024 27.3438C215.569 27.3438 217.618 28.1906 219.127 29.881C220.024 30.8846 220.651 32.096 221.01 33.5073C221.168 34.132 221.282 35.2465 221.359 36.8798C221.379 37.293 221.061 37.6444 220.648 37.6646L220.622 37.6655L220.585 37.6651L220.581 37.6655L209.056 37.6654L209.059 37.6859C209.224 38.7675 209.636 39.6211 210.294 40.2643L210.347 40.316C211.163 41.0842 212.265 41.4718 213.685 41.4718C214.668 41.4718 215.699 41.2892 216.779 40.9217L216.872 40.8892C217.551 40.6443 218.587 40.1289 219.963 39.347C220.323 39.1423 220.781 39.2691 220.985 39.6295C221.048 39.7422 221.082 39.8695 221.082 39.9985V42.9245C221.081 43.1964 220.933 43.4463 220.694 43.5781L220.383 43.7477C219.059 44.4635 218.029 44.9338 217.279 45.1606C216.062 45.529 214.803 45.7132 213.507 45.7132C210.744 45.7132 208.507 44.8462 206.837 43.1114C205.17 41.3814 204.34 39.0806 204.34 36.2423C204.34 33.6281 205.143 31.4784 206.749 29.8271C208.359 28.1725 210.463 27.3438 213.024 27.3438ZM212.988 31.3347C211.858 31.3347 210.975 31.6265 210.312 32.2022C209.789 32.6567 209.402 33.2914 209.155 34.1171L209.144 34.1573H216.479L216.465 34.0959C216.299 33.3811 215.979 32.7925 215.503 32.3189L215.447 32.2647C214.795 31.6432 213.986 31.3347 212.988 31.3347Z" fill="#070707"/>
<path d="M227.541 23.8242H227.406C227.194 23.8242 226.992 23.9138 226.85 24.0708L221.166 30.3529C221.042 30.4906 220.973 30.6697 220.973 30.8555V30.9523L220.973 30.9873C220.992 31.3818 221.317 31.6959 221.716 31.6959L223.78 31.6958L223.78 38.9463C223.78 41.4095 224.188 43.1421 225.056 44.1543C225.942 45.1859 227.41 45.6809 229.424 45.6809C230.147 45.6809 230.826 45.6076 231.461 45.4602C231.882 45.3623 232.434 45.1531 233.13 44.8319L233.162 44.8162C233.428 44.6793 233.584 44.3957 233.566 44.1003L233.566 44.0924L233.562 41.5575C233.58 41.3946 233.566 41.2426 233.487 41.0835C233.302 40.7129 232.852 40.5623 232.481 40.7479L232.352 40.812C231.952 41.0077 231.642 41.1348 231.434 41.1922C231.007 41.3095 230.57 41.3681 230.122 41.3681C229.346 41.3681 228.868 41.2179 228.661 40.9741L228.646 40.9564C228.433 40.6797 228.29 39.9085 228.29 38.6959L228.29 31.6958L232.709 31.6959C233.123 31.6959 233.458 31.3605 233.458 30.9468V28.4184L233.458 28.3831C233.439 27.9857 233.111 27.6692 232.709 27.6692L228.29 27.6691L228.29 24.5734C228.29 24.1596 227.955 23.8242 227.541 23.8242Z" fill="#070707"/>
<path d="M143.678 45.5C142.074 45.5 140.646 45.1126 139.393 44.3378C138.151 43.5514 137.168 42.4585 136.442 41.0592C135.728 39.6599 135.371 38.0466 135.371 36.2194C135.371 34.9126 135.574 33.6983 135.981 32.5765C136.399 31.4548 136.981 30.4718 137.728 29.6276C138.475 28.7833 139.36 28.1241 140.382 27.65C141.404 27.1758 142.53 26.9388 143.761 26.9388C145.112 26.9388 146.31 27.2221 147.354 27.7888C148.304 28.2889 149.134 29.0002 149.844 29.9228C149.982 30.1016 149.963 30.3528 149.809 30.5175C149.514 30.8325 148.986 30.6238 148.986 30.1923V20.0842C148.986 19.4854 149.471 19 150.07 19L152.417 19C153.015 19 153.501 19.4854 153.501 20.0842V43.896C153.501 44.4949 153.015 44.9804 152.416 44.9802L150.743 44.9798C150.126 44.9797 149.634 44.466 149.66 43.8498L149.728 42.2369C149.762 41.4408 150.459 41.3124 150.14 42.0428C150.134 42.0571 150.128 42.0714 150.121 42.0859C149.605 43.2077 148.936 43.7248 147.816 44.4418C146.695 45.1473 145.316 45.5 143.678 45.5ZM144.568 41.1112C145.415 41.1112 146.173 40.9146 146.843 40.5214C147.513 40.1167 148.041 39.55 148.425 38.8214C148.81 38.0929 149.002 37.2255 149.002 36.2194C149.002 35.2133 148.81 34.3459 148.425 33.6173C148.052 32.8888 147.53 32.3279 146.86 31.9347C146.189 31.5299 145.426 31.3275 144.568 31.3275C143.711 31.3275 142.948 31.5299 142.277 31.9347C141.607 32.3279 141.08 32.8888 140.695 33.6173C140.31 34.3459 140.118 35.2133 140.118 36.2194C140.118 37.2255 140.31 38.0929 140.695 38.8214C141.08 39.55 141.607 40.1167 142.277 40.5214C142.948 40.9146 143.711 41.1112 144.568 41.1112Z" fill="#070707"/>
<path d="M123.538 45.6971C122.033 45.6971 120.785 45.3848 119.796 44.7603C118.818 44.1358 118.088 43.2801 117.604 42.193C117.121 41.1059 116.879 39.8743 116.879 38.4981V28.7404C116.879 28.1417 117.364 27.6562 117.963 27.6562H120.608C121.206 27.6562 121.692 28.1417 121.692 28.7404V37.6828C121.692 38.7236 121.961 39.5505 122.5 40.1634C123.049 40.7763 123.835 41.0828 124.857 41.0828C125.516 41.0828 126.098 40.9324 126.604 40.6318C127.109 40.3195 127.499 39.8858 127.774 39.3307C128.06 38.7756 128.203 38.1338 128.203 37.4052V28.7404C128.203 28.1417 128.688 27.6562 129.287 27.6562H131.931C132.53 27.6562 133.016 28.1417 133.016 28.7404V44.0925C133.016 44.6913 132.53 45.1767 131.931 45.1767H129.337C129.057 45.1767 128.829 44.949 128.829 44.6683C128.829 44.1913 128.194 43.9461 127.824 44.2465C127.481 44.5239 127.108 44.7762 126.703 45.0032C125.868 45.4658 124.813 45.6971 123.538 45.6971Z" fill="#070707"/>
<path d="M105.635 45.6979C103.844 45.6979 102.256 45.2758 100.871 44.4316C99.4868 43.5874 98.3989 42.4656 97.6078 41.0663C96.8276 39.6554 96.4375 38.1058 96.4375 36.4173C96.4375 35.1799 96.6628 34.0061 97.1133 32.8959C97.5638 31.7741 98.2012 30.7854 99.0253 29.9296C99.8494 29.0622 100.822 28.3799 101.943 27.8826C103.064 27.3854 104.294 27.1367 105.635 27.1367C107.426 27.1367 109.008 27.5588 110.382 28.403C111.766 29.2473 112.849 30.3748 113.629 31.7857C114.42 33.185 114.816 34.7289 114.816 36.4173C114.816 37.6432 114.59 38.817 114.14 39.9388C113.689 41.0605 113.052 42.0551 112.228 42.9224C111.415 43.7782 110.448 44.4547 109.327 44.952C108.206 45.4493 106.975 45.6979 105.635 45.6979ZM105.635 41.3092C106.481 41.3092 107.239 41.1126 107.909 40.7194C108.58 40.3146 109.107 39.7479 109.492 39.0194C109.876 38.2792 110.069 37.4119 110.069 36.4173C110.069 35.4112 109.876 34.5439 109.492 33.8153C109.118 33.0867 108.596 32.5258 107.926 32.1326C107.256 31.7279 106.492 31.5255 105.635 31.5255C104.778 31.5255 104.009 31.7279 103.327 32.1326C102.657 32.5258 102.13 33.0867 101.745 33.8153C101.371 34.5439 101.185 35.4112 101.185 36.4173C101.185 37.4235 101.377 38.2908 101.761 39.0194C102.146 39.7479 102.673 40.3146 103.344 40.7194C104.014 41.1126 104.778 41.3092 105.635 41.3092Z" fill="#070707"/>
<path d="M90.7326 45.3558C90.1338 45.3558 89.6484 44.8704 89.6484 44.2716V20.26C89.6484 19.6612 90.1338 19.1758 90.7326 19.1758H93.0643C93.663 19.1758 94.1484 19.6612 94.1484 20.26V44.2716C94.1484 44.8704 93.663 45.3558 93.0643 45.3558H90.7326Z" fill="#070707"/>
<path d="M69.0842 45.3558C68.4854 45.3558 68 44.8704 68 44.2716V20.26C68 19.6612 68.4854 19.1758 69.0842 19.1758H71.2937C71.8925 19.1758 72.3779 19.6612 72.3779 20.26V30.4031C72.3779 30.6148 72.6501 30.7011 72.772 30.528L80.4418 19.6358C80.6449 19.3474 80.9756 19.1758 81.3283 19.1758H84.7297C85.6103 19.1758 86.1236 20.1701 85.6135 20.8879L78.5452 30.8365C78.4139 31.0212 78.4114 31.2681 78.5389 31.4554L86.8469 43.6616C87.3367 44.3813 86.8212 45.3558 85.9506 45.3558H82.3047C81.9406 45.3558 81.6008 45.173 81.4001 44.8691L75.5342 35.9884C75.3285 35.6769 74.8769 35.6617 74.6507 35.9586L72.5997 38.6506C72.4558 38.8394 72.3779 39.0702 72.3779 39.3076V44.2716C72.3779 44.8704 71.8925 45.3558 71.2937 45.3558H69.0842Z" fill="#070707"/>
<defs>
<radialGradient id="paint0_radial_2944_11401" cx="0" cy="0" r="1" gradientTransform="matrix(14.7954 -8.48745 4.85496 43.7084 38.258 33.5688)" gradientUnits="userSpaceOnUse">
<stop stop-color="#7E21FF"/>
<stop offset="1" stop-color="#3EC5FF"/>
</radialGradient>
<radialGradient id="paint1_radial_2944_11401" cx="0" cy="0" r="1" gradientTransform="matrix(38.5906 -13 12.6631 66.947 8.87066 34)" gradientUnits="userSpaceOnUse">
<stop stop-color="#7E21FF"/>
<stop offset="1" stop-color="#3EC5FF"/>
</radialGradient>
</defs>
</svg>
