<?xml version="1.0" encoding="UTF-8"?>
<svg width="18px" height="18px" viewBox="0 0 18 18" version="1.1" xmlns="http://www.w3.org/2000/svg" xmlns:xlink="http://www.w3.org/1999/xlink">
    <!-- Generator: Sketch 56 (81588) - https://sketch.com -->
    <title>js</title>
    <desc>Created with Sketch.</desc>
    <g id="页面-1" stroke="none" stroke-width="1" fill="none" fill-rule="evenodd">
        <g id="7.7-文件类型" transform="translate(-73.000000, -262.000000)">
            <g id="js" transform="translate(73.000000, 262.000000)">
                <rect id="矩形备份-8" stroke="#191836" stroke-width="0.5" fill="#FFFFFF" x="0.25" y="0.25" width="17.5" height="17.5" rx="2.07692308"></rect>
                <path d="M6.08333333,5 L6.91666667,5 L6.91666667,5.88888889 L6.08333333,5.88888889 L6.08333333,8.11111111 C6.08333333,8.60203089 5.71023729,9 5.25,9 C5.71023729,9 6.08333333,9.39796911 6.08333333,9.88888889 L6.08333333,12.1111111 L6.91666667,12.1111111 L6.91666667,13 L6.08333333,13 C5.6375,12.88 5.25,12.6 5.25,12.1111111 L5.25,10.3333333 C5.25,10.0975853 5.16220263,9.87149298 5.00592232,9.70479397 C4.849642,9.53809497 4.63768041,9.44444445 4.41666667,9.44444445 L4,9.44444445 L4,8.55555555 L4.41666667,8.55555555 C4.87690396,8.55555555 5.25,8.15758644 5.25,7.66666667 L5.25,5.88888889 C5.25,5.39796911 5.62309604,5 6.08333333,5 L6.08333333,5 Z M11.9166667,5 C12.376904,5 12.75,5.39796911 12.75,5.88888889 L12.75,7.66666667 C12.75,8.15758644 13.123096,8.55555555 13.5833333,8.55555555 L14,8.55555555 L14,9.44444445 L13.5833333,9.44444445 C13.3623196,9.44444445 13.150358,9.53809497 12.9940777,9.70479397 C12.8377974,9.87149298 12.75,10.0975853 12.75,10.3333333 L12.75,12.1111111 C12.75,12.6020309 12.376904,13 11.9166667,13 L11.0833333,13 L11.0833333,12.1111111 L11.9166667,12.1111111 L11.9166667,9.88888889 C11.9166667,9.6531409 12.004464,9.42704853 12.1607444,9.26034953 C12.3170247,9.09365052 12.5289863,9 12.75,9 C12.5289863,9 12.3170247,8.90634948 12.1607444,8.73965047 C12.004464,8.57295147 11.9166667,8.3468591 11.9166667,8.11111111 L11.9166667,5.88888889 L11.0833333,5.88888889 L11.0833333,5 L11.9166667,5 L11.9166667,5 Z M9,10.3333333 C9.23011865,10.3333333 9.41666667,10.5323179 9.41666667,10.7777778 C9.41666667,11.0232377 9.23011864,11.2222222 9,11.2222222 C8.76988136,11.2222222 8.58333333,11.0232377 8.58333333,10.7777778 C8.58333333,10.5323179 8.76988135,10.3333333 9,10.3333333 L9,10.3333333 Z M7.33333333,10.3333333 C7.4438402,10.3333333 7.549821,10.3801586 7.62796116,10.4635081 C7.70610132,10.5468576 7.75,10.6599038 7.75,10.7777778 C7.75,11.0232377 7.56345197,11.2222222 7.33333333,11.2222222 C7.10321469,11.2222222 6.91666667,11.0232377 6.91666667,10.7777778 C6.91666667,10.5323179 7.10321469,10.3333333 7.33333333,10.3333333 L7.33333333,10.3333333 Z M10.6666667,10.3333333 C10.8967853,10.3333333 11.0833333,10.5323179 11.0833333,10.7777778 C11.0833333,11.0232377 10.8967853,11.2222222 10.6666667,11.2222222 C10.436548,11.2222222 10.25,11.0232377 10.25,10.7777778 C10.25,10.5323179 10.436548,10.3333333 10.6666667,10.3333333 Z" id="形状" fill="#191836" fill-rule="nonzero"></path>
            </g>
        </g>
    </g>
</svg>