<svg width="46" height="35" viewBox="0 0 46 35" fill="none" xmlns="http://www.w3.org/2000/svg">
<path fill-rule="evenodd" clip-rule="evenodd" d="M32.877 18.7526L42.6038 28.5005C43.2532 29.1513 44.3073 29.1524 44.9582 28.503C45.2712 28.1907 45.4471 27.7667 45.4471 27.3245V7.82887C45.4471 6.90942 44.7017 6.16406 43.7823 6.16406C43.3401 6.16406 42.9161 6.33995 42.6038 6.65294L32.877 16.4008C32.2285 17.0506 32.2285 18.1028 32.877 18.7526Z" fill="url(#paint0_radial_2917_44896)"/>
<path fill-rule="evenodd" clip-rule="evenodd" d="M26.0639 0C30.4772 0 34.0549 3.57772 34.0549 7.99105L34.0549 8.65697H24.9355C20.5663 8.65697 17.0161 12.1635 16.9455 16.5159L16.9444 16.648V18.3128C16.9444 22.7262 20.5221 26.3039 24.9355 26.3039H34.0549L34.0549 26.9698C34.0549 31.3831 30.4772 34.9609 26.0639 34.9609H7.99105C3.57772 34.9609 0 31.3831 0 26.9698V7.99105C0 3.57772 3.57772 0 7.99105 0H26.0639Z" fill="url(#paint1_radial_2917_44896)"/>
<defs>
<radialGradient id="paint0_radial_2917_44896" cx="0" cy="0" r="1" gradientTransform="matrix(14.7954 -8.48745 4.85496 43.7084 34.258 18.5688)" gradientUnits="userSpaceOnUse">
<stop stop-color="#7E21FF"/>
<stop offset="1" stop-color="#3EC5FF"/>
</radialGradient>
<radialGradient id="paint1_radial_2917_44896" cx="0" cy="0" r="1" gradientTransform="matrix(38.5906 -13 12.6631 66.947 4.87066 19)" gradientUnits="userSpaceOnUse">
<stop stop-color="#7E21FF"/>
<stop offset="1" stop-color="#3EC5FF"/>
</radialGradient>
</defs>
</svg>
